<svg width="50" height="50" viewBox="0 0 50 50" fill="none" xmlns="http://www.w3.org/2000/svg">
<g clip-path="url(#clip0_15_578)">
<path d="M25 49.9981C38.806 49.9981 49.9981 38.806 49.9981 25C49.9981 11.194 38.806 0.00195312 25 0.00195312C11.194 0.00195312 0.00195312 11.194 0.00195312 25C0.00195312 38.806 11.194 49.9981 25 49.9981Z" fill="#8D00AF"/>
<path d="M50 24.9766C49.9989 21.0778 49.0847 17.2334 47.3305 13.7515C45.5763 10.2696 43.031 7.24696 39.8984 4.92579C28.8086 -3.30175 13.1533 -0.984362 4.92578 10.1016C2.04939 13.9635 0.355566 18.5772 0.0498047 23.3828C0.535208 23.5584 1.00121 23.7835 1.44043 24.0547C3.76855 25.4942 5.54199 28.1465 8.26758 28.3945C10.1377 28.5654 11.9092 27.4922 13.2578 26.1856C14.6064 24.8789 15.6865 23.3037 17.1055 22.0723C19.2859 20.179 22.124 19.22 25.0059 19.4028C27.8878 19.5855 30.582 20.8953 32.5059 23.0488C33.8896 24.6006 35.0967 26.7051 37.1621 26.9551C39.9697 27.291 42.1641 23.8662 44.9746 24.1279C45.8828 24.2129 46.7051 24.6807 47.585 24.9092C48.3742 25.1165 49.2005 25.1395 50 24.9766Z" fill="#AA0DD1"/>
<path d="M4.68752 19.4795L2.99709 25.7871C2.95286 25.9489 2.94112 26.1178 2.96256 26.2842C2.984 26.4505 3.0382 26.611 3.12201 26.7563C3.20582 26.9016 3.31759 27.0288 3.45086 27.1306C3.58413 27.2325 3.73626 27.3069 3.89846 27.3496L7.74807 28.3808L8.18459 26.7529L5.2549 25.9717C5.1852 25.9536 5.11976 25.9219 5.06235 25.8785C5.00494 25.835 4.95669 25.7807 4.92038 25.7185C4.88407 25.6563 4.86042 25.5876 4.8508 25.5162C4.84117 25.4449 4.84575 25.3723 4.86428 25.3027L6.06838 20.8398C6.08633 20.7702 6.11789 20.7047 6.16124 20.6473C6.2046 20.5899 6.25889 20.5417 6.32099 20.5054C6.38309 20.4691 6.45177 20.4454 6.52305 20.4358C6.59434 20.4261 6.66684 20.4307 6.73635 20.4492L9.66604 21.2305L10.1026 19.6016L6.25002 18.5781C6.08823 18.5339 5.91928 18.5221 5.75293 18.5436C5.58658 18.565 5.42613 18.6192 5.28084 18.703C5.13556 18.7868 5.00832 18.8986 4.90648 19.0319C4.80464 19.1652 4.73022 19.3173 4.68752 19.4795Z" fill="#AACFE5"/>
<path d="M4.68752 19.4795L3.17971 25.1064C3.13548 25.2682 3.12374 25.4372 3.14518 25.6035C3.16662 25.7699 3.22081 25.9303 3.30462 26.0756C3.38844 26.2209 3.50021 26.3481 3.63348 26.45C3.76675 26.5518 3.91888 26.6262 4.08108 26.6689L6.47365 27.3105C6.5722 27.3368 6.67713 27.3228 6.7654 27.2717C6.85366 27.2206 6.91802 27.1366 6.94436 27.0381L6.99904 26.834C7.01219 26.7852 7.01559 26.7344 7.00905 26.6843C7.00251 26.6343 6.98616 26.586 6.96095 26.5423C6.93573 26.4986 6.90213 26.4603 6.86209 26.4295C6.82204 26.3988 6.77632 26.3763 6.72756 26.3633L4.71682 25.8223C4.64722 25.8042 4.58188 25.7726 4.52454 25.7292C4.46721 25.6858 4.41901 25.6315 4.38271 25.5694C4.34642 25.5074 4.32274 25.4387 4.31304 25.3675C4.30334 25.2963 4.30781 25.2238 4.32619 25.1543L5.70412 20.0127C5.72207 19.943 5.75363 19.8776 5.79699 19.8202C5.84034 19.7628 5.89464 19.7145 5.95673 19.6782C6.01883 19.6419 6.08751 19.6183 6.1588 19.6086C6.23009 19.599 6.30258 19.6035 6.37209 19.6221L8.38381 20.1611C8.48236 20.1874 8.58729 20.1734 8.67555 20.1223C8.76381 20.0712 8.82818 19.9872 8.85451 19.8887L8.9092 19.6855C8.92236 19.6367 8.92577 19.5858 8.91924 19.5357C8.91271 19.4856 8.89638 19.4373 8.87117 19.3935C8.84596 19.3497 8.81237 19.3113 8.77231 19.2804C8.73225 19.2496 8.68652 19.227 8.63772 19.2139L6.25002 18.5781C6.08823 18.5339 5.91928 18.5221 5.75293 18.5436C5.58658 18.565 5.42613 18.6192 5.28084 18.703C5.13556 18.7868 5.00832 18.8986 4.90648 19.0319C4.80464 19.1652 4.73022 19.3173 4.68752 19.4795Z" fill="#CDE6F6"/>
<path d="M5.31243 20.8729C5.46431 20.3061 5.3788 19.7907 5.12144 19.7217C4.86409 19.6528 4.53234 20.0564 4.38046 20.6232C4.22859 21.19 4.3141 21.7054 4.57145 21.7743C4.82881 21.8433 5.16055 21.4397 5.31243 20.8729Z" fill="#EEF9FF"/>
<path d="M4.61941 22.8895C4.72466 22.4967 4.66513 22.1394 4.48644 22.0916C4.30775 22.0437 4.07757 22.3233 3.97231 22.7161C3.86706 23.1089 3.9266 23.4662 4.10529 23.514C4.28398 23.5619 4.51416 23.2823 4.61941 22.8895Z" fill="#EEF9FF"/>
<path d="M10.7586 17.1465L6.72051 32.2158C6.68079 32.3638 6.67064 32.5182 6.69062 32.6701C6.71061 32.822 6.76034 32.9685 6.83698 33.1012C6.91362 33.2339 7.01566 33.3502 7.13727 33.4434C7.25887 33.5366 7.39767 33.605 7.5457 33.6445L19.0936 36.7393C19.3924 36.8182 19.7103 36.7758 19.9781 36.6215C20.2459 36.4671 20.4418 36.2132 20.5232 35.915L24.5604 20.8457C24.6001 20.6977 24.6102 20.5433 24.5902 20.3914C24.5703 20.2395 24.5205 20.093 24.4439 19.9603C24.3672 19.8276 24.2652 19.7113 24.1436 19.6181C24.022 19.5249 23.8832 19.4565 23.7352 19.417L12.1873 16.3223C12.0394 16.2824 11.885 16.2721 11.7331 16.292C11.5812 16.3118 11.4347 16.3615 11.302 16.438C11.1693 16.5146 11.053 16.6166 10.9597 16.7381C10.8665 16.8597 10.7981 16.9985 10.7586 17.1465Z" fill="#AACFE5"/>
<path d="M10.7586 17.1465L6.72051 32.2158C6.68079 32.3638 6.67064 32.5182 6.69062 32.6701C6.71061 32.822 6.76034 32.9685 6.83698 33.1012C6.91362 33.2339 7.01566 33.3502 7.13727 33.4434C7.25887 33.5366 7.39767 33.605 7.5457 33.6445L17.8504 36.4062C18.1492 36.4848 18.467 36.4422 18.7346 36.2877C19.0021 36.1331 19.1979 35.8792 19.2791 35.5811L23.3162 20.5078C23.3559 20.3599 23.3661 20.2056 23.3462 20.0537C23.3263 19.9018 23.2766 19.7554 23.2001 19.6227C23.1236 19.49 23.0216 19.3737 22.9001 19.2804C22.7786 19.1872 22.6399 19.1188 22.492 19.0791L12.1873 16.3223C12.0394 16.2824 11.885 16.2721 11.7331 16.292C11.5812 16.3118 11.4347 16.3615 11.302 16.438C11.1693 16.5146 11.053 16.6166 10.9597 16.7381C10.8665 16.8597 10.7981 16.9985 10.7586 17.1465Z" fill="#CDE6F6"/>
<path d="M9.94774 22.6572L9.94869 22.6575C10.292 22.7495 10.6449 22.5457 10.7369 22.2024L11.7608 18.3812C11.8528 18.0378 11.649 17.685 11.3057 17.593L11.3048 17.5927C10.9615 17.5007 10.6086 17.7045 10.5166 18.0478L9.49268 21.869C9.40069 22.2123 9.60443 22.5652 9.94774 22.6572Z" fill="#EEF9FF"/>
<path d="M8.80498 26.781L8.80593 26.7812C9.15069 26.8736 9.50509 26.6691 9.5975 26.3243L10.1167 24.3871C10.2091 24.0424 10.0046 23.688 9.65981 23.5956L9.65887 23.5953C9.3141 23.5029 8.95971 23.7075 8.86729 24.0522L8.34806 25.9894C8.25565 26.3342 8.46022 26.6886 8.80498 26.781Z" fill="#EEF9FF"/>
<path d="M11.4932 19.3809H23.6192L19.7871 33.6836C19.7396 33.8613 19.6574 34.0279 19.5454 34.1739C19.4334 34.3198 19.2938 34.4423 19.1344 34.5342C18.9751 34.6262 18.7992 34.6858 18.6168 34.7098C18.4344 34.7338 18.249 34.7215 18.0713 34.6738L9.46391 32.3672C9.2862 32.3196 9.1196 32.2375 8.97365 32.1255C8.82769 32.0135 8.70524 31.8738 8.61328 31.7145C8.52132 31.5551 8.46166 31.3792 8.4377 31.1968C8.41375 31.0144 8.42597 30.829 8.47367 30.6514L11.4932 19.3809Z" fill="#F39E22"/>
<path d="M13.953 23.2359C14.2594 22.0924 13.9824 21.0247 13.3343 20.851C12.6862 20.6774 11.9125 21.4636 11.6061 22.6071C11.2997 23.7506 11.5766 24.8184 12.2247 24.992C12.8728 25.1657 13.6466 24.3795 13.953 23.2359Z" fill="#F9C744"/>
<path d="M12.4409 27.1135C12.632 26.4003 12.4592 25.7343 12.0549 25.626C11.6506 25.5177 11.168 26.008 10.9769 26.7212C10.7858 27.4344 10.9586 28.1004 11.3629 28.2087C11.7671 28.317 12.2498 27.8267 12.4409 27.1135Z" fill="#F9C744"/>
<path d="M17.1396 20.748C17.5954 20.748 17.9648 20.3786 17.9648 19.9229C17.9648 19.4671 17.5954 19.0977 17.1396 19.0977C16.6839 19.0977 16.3145 19.4671 16.3145 19.9229C16.3145 20.3786 16.6839 20.748 17.1396 20.748Z" fill="white"/>
<path d="M15.6406 24.708C16.2301 24.708 16.708 24.2301 16.708 23.6406C16.708 23.0511 16.2301 22.5732 15.6406 22.5732C15.0511 22.5732 14.5732 23.0511 14.5732 23.6406C14.5732 24.2301 15.0511 24.708 15.6406 24.708Z" fill="white"/>
<path d="M20.0928 23.7285C20.6823 23.7285 21.1602 23.2506 21.1602 22.6611C21.1602 22.0716 20.6823 21.5938 20.0928 21.5938C19.5033 21.5938 19.0254 22.0716 19.0254 22.6611C19.0254 23.2506 19.5033 23.7285 20.0928 23.7285Z" fill="white"/>
<path d="M18.3301 27.2246C18.7135 27.2246 19.0244 26.9137 19.0244 26.5303C19.0244 26.1468 18.7135 25.8359 18.3301 25.8359C17.9466 25.8359 17.6357 26.1468 17.6357 26.5303C17.6357 26.9137 17.9466 27.2246 18.3301 27.2246Z" fill="white"/>
<path d="M17.9648 31.4932C18.3483 31.4932 18.6592 31.1823 18.6592 30.7988C18.6592 30.4154 18.3483 30.1045 17.9648 30.1045C17.5814 30.1045 17.2705 30.4154 17.2705 30.7988C17.2705 31.1823 17.5814 31.4932 17.9648 31.4932Z" fill="white"/>
<path d="M16.0225 29.1104C16.5165 29.1104 16.917 28.7099 16.917 28.2158C16.917 27.7218 16.5165 27.3213 16.0225 27.3213C15.5284 27.3213 15.1279 27.7218 15.1279 28.2158C15.1279 28.7099 15.5284 29.1104 16.0225 29.1104Z" fill="white"/>
<path d="M12.9824 31.9785C13.3659 31.9785 13.6768 31.6677 13.6768 31.2842C13.6768 30.9007 13.3659 30.5898 12.9824 30.5898C12.599 30.5898 12.2881 30.9007 12.2881 31.2842C12.2881 31.6677 12.599 31.9785 12.9824 31.9785Z" fill="white"/>
<path d="M23.6192 19.3809H11.4932C11.492 19.1122 11.556 18.8472 11.6798 18.6087C11.8036 18.3702 11.9834 18.1653 12.2039 18.0116C12.4243 17.858 12.6787 17.7601 12.9453 17.7264C13.2119 17.6928 13.4827 17.7243 13.7344 17.8184C13.7699 17.4053 13.9579 17.0202 14.2619 16.7382C14.5659 16.4562 14.964 16.2976 15.3786 16.2932C15.7932 16.2888 16.1946 16.439 16.5044 16.7145C16.8143 16.9899 17.0105 17.3709 17.0547 17.7832C17.4623 17.4653 17.9558 17.2767 18.4715 17.2419C18.9873 17.2071 19.5016 17.3276 19.9483 17.5879C19.9798 17.2578 20.1372 16.9525 20.3877 16.7353C20.6383 16.5181 20.9628 16.4056 21.294 16.4211C21.6253 16.4367 21.9378 16.5791 22.1669 16.8189C22.396 17.0587 22.524 17.3774 22.5244 17.709C22.5246 17.8392 22.5048 17.9686 22.4658 18.0928C22.7833 18.127 23.0767 18.2776 23.2897 18.5155C23.5027 18.7533 23.62 19.0616 23.6192 19.3809Z" fill="white"/>
<path d="M23.9434 35.5088C23.6111 35.5085 23.2926 35.3764 23.0577 35.1415C22.8228 34.9066 22.6907 34.5881 22.6904 34.2559L23.3213 19.1406C23.3281 18.9802 23.3966 18.8285 23.5125 18.7174C23.6284 18.6062 23.7828 18.5441 23.9434 18.5439C24.1039 18.5441 24.2581 18.6062 24.3739 18.7174C24.4896 18.8286 24.5579 18.9803 24.5645 19.1406L25.1953 34.2559C25.1953 34.588 25.0634 34.9065 24.8287 35.1415C24.5939 35.3764 24.2755 35.5085 23.9434 35.5088Z" fill="white"/>
<path d="M23.9434 37.2471H23.9424C23.2509 37.2471 22.6904 37.8076 22.6904 38.499V39.6055C22.6904 40.2969 23.2509 40.8574 23.9424 40.8574H23.9434C24.6348 40.8574 25.1953 40.2969 25.1953 39.6055V38.499C25.1953 37.8076 24.6348 37.2471 23.9434 37.2471Z" fill="white"/>
<path d="M45.3125 19.4795L47.0029 25.7871C47.0472 25.9489 47.0589 26.1178 47.0375 26.2842C47.016 26.4505 46.9618 26.611 46.878 26.7563C46.7942 26.9016 46.6824 27.0288 46.5492 27.1306C46.4159 27.2325 46.2638 27.3069 46.1016 27.3496L42.252 28.3808L41.8154 26.7529L44.7451 25.9717C44.8148 25.9536 44.8803 25.9219 44.9377 25.8785C44.9951 25.835 45.0433 25.7807 45.0796 25.7185C45.116 25.6563 45.1396 25.5876 45.1492 25.5162C45.1589 25.4449 45.1543 25.3723 45.1357 25.3027L43.9316 20.8398C43.9137 20.7702 43.8821 20.7047 43.8388 20.6473C43.7954 20.5899 43.7411 20.5417 43.679 20.5054C43.6169 20.4691 43.5483 20.4454 43.477 20.4358C43.4057 20.4261 43.3332 20.4307 43.2637 20.4492L40.334 21.2305L39.8975 19.6016L43.75 18.5781C43.9118 18.5339 44.0807 18.5221 44.2471 18.5436C44.4134 18.565 44.5739 18.6192 44.7192 18.703C44.8645 18.7868 44.9917 18.8986 45.0935 19.0319C45.1954 19.1652 45.2698 19.3173 45.3125 19.4795Z" fill="#AACFE5"/>
<path d="M45.3126 19.4795L46.8204 25.1064C46.8646 25.2682 46.8764 25.4372 46.8549 25.6035C46.8335 25.7699 46.7793 25.9303 46.6955 26.0756C46.6117 26.2209 46.4999 26.3481 46.3666 26.45C46.2334 26.5518 46.0812 26.6262 45.919 26.6689L43.5264 27.3105C43.4279 27.3368 43.323 27.3228 43.2347 27.2717C43.1464 27.2206 43.0821 27.1366 43.0557 27.0381L43.0011 26.834C42.9879 26.7852 42.9845 26.7344 42.991 26.6843C42.9976 26.6343 43.0139 26.586 43.0392 26.5423C43.0644 26.4986 43.098 26.4603 43.138 26.4295C43.1781 26.3988 43.2238 26.3763 43.2725 26.3633L45.2833 25.8242C45.3529 25.8061 45.4182 25.7745 45.4756 25.7311C45.5329 25.6877 45.5811 25.6335 45.6174 25.5714C45.6537 25.5093 45.6774 25.4407 45.6871 25.3695C45.6968 25.2982 45.6923 25.2258 45.6739 25.1562L44.296 20.0146C44.278 19.945 44.2465 19.8796 44.2031 19.8222C44.1598 19.7647 44.1055 19.7165 44.0434 19.6802C43.9813 19.6439 43.9126 19.6202 43.8413 19.6106C43.77 19.6009 43.6975 19.6055 43.628 19.624L41.6163 20.1631C41.5177 20.1893 41.4128 20.1754 41.3245 20.1243C41.2363 20.0732 41.1719 19.9891 41.1456 19.8906L41.0909 19.6875C41.0777 19.6387 41.0743 19.5878 41.0809 19.5377C41.0874 19.4876 41.1037 19.4392 41.1289 19.3954C41.1541 19.3516 41.1877 19.3132 41.2278 19.2824C41.2678 19.2516 41.3136 19.2289 41.3624 19.2158L43.7501 18.5781C43.9119 18.5339 44.0808 18.5221 44.2472 18.5436C44.4135 18.565 44.574 18.6192 44.7193 18.703C44.8645 18.7868 44.9918 18.8986 45.0936 19.0319C45.1955 19.1652 45.2699 19.3173 45.3126 19.4795Z" fill="#CDE6F6"/>
<path d="M45.4286 21.7744C45.6859 21.7054 45.7714 21.19 45.6196 20.6232C45.4677 20.0564 45.1359 19.6528 44.8786 19.7218C44.6212 19.7907 44.5357 20.3061 44.6876 20.8729C44.8395 21.4398 45.1712 21.8433 45.4286 21.7744Z" fill="#EEF9FF"/>
<path d="M45.8942 23.5124C46.0728 23.4645 46.1324 23.1073 46.0271 22.7145C45.9219 22.3217 45.6917 22.0421 45.513 22.0899C45.3343 22.1378 45.2748 22.4951 45.38 22.8879C45.4853 23.2807 45.7155 23.5603 45.8942 23.5124Z" fill="#EEF9FF"/>
<path d="M39.2412 17.1465L43.2793 32.2158C43.319 32.3638 43.3291 32.5182 43.3092 32.6701C43.2892 32.822 43.2394 32.9685 43.1628 33.1012C43.0862 33.2339 42.9841 33.3502 42.8625 33.4434C42.7409 33.5366 42.6021 33.605 42.4541 33.6445L30.9062 36.7393C30.6074 36.8182 30.2895 36.7758 30.0217 36.6215C29.7539 36.4671 29.558 36.2132 29.4765 35.915L25.4394 20.8457C25.3998 20.6974 25.3898 20.5427 25.4101 20.3905C25.4304 20.2383 25.4806 20.0917 25.5577 19.9589C25.6348 19.8262 25.7374 19.71 25.8596 19.617C25.9817 19.524 26.121 19.456 26.2695 19.417L37.8125 16.3223C37.9604 16.2824 38.1147 16.2721 38.2667 16.292C38.4186 16.3118 38.5651 16.3615 38.6978 16.438C38.8305 16.5146 38.9468 16.6166 39.04 16.7381C39.1333 16.8597 39.2016 16.9985 39.2412 17.1465Z" fill="#AACFE5"/>
<path d="M37.8126 16.3224L27.5071 19.0837C26.8851 19.2504 26.516 19.8898 26.6826 20.5118L30.7206 35.5818C30.8873 36.2038 31.5267 36.5729 32.1487 36.4063L42.4541 33.6449C43.0761 33.4783 43.4453 32.8389 43.2786 32.2169L39.2406 17.1469C39.074 16.5249 38.4346 16.1557 37.8126 16.3224Z" fill="#CDE6F6"/>
<path d="M38.6943 17.592L38.6934 17.5923C38.3501 17.6842 38.1464 18.0371 38.2383 18.3804L39.2622 22.2017C39.3542 22.545 39.7071 22.7488 40.0504 22.6568L40.0514 22.6565C40.3947 22.5645 40.5984 22.2116 40.5064 21.8683L39.4825 18.0471C39.3905 17.7038 39.0377 17.5 38.6943 17.592Z" fill="#EEF9FF"/>
<path d="M40.3355 23.7164L40.3345 23.7167C39.9912 23.8087 39.7875 24.1616 39.8795 24.5049L40.3963 26.4339C40.4883 26.7772 40.8412 26.9809 41.1845 26.889L41.1855 26.8887C41.5288 26.7967 41.7325 26.4438 41.6405 26.1005L41.1237 24.1715C41.0317 23.8282 40.6788 23.6244 40.3355 23.7164Z" fill="#EEF9FF"/>
<path d="M38.5068 19.3809H26.3809L30.2129 33.6826C30.2603 33.8609 30.3426 34.0281 30.4549 34.1746C30.5671 34.321 30.7073 34.4438 30.8672 34.5359C31.0271 34.6281 31.2036 34.6877 31.3866 34.7113C31.5696 34.735 31.7555 34.7222 31.9336 34.6738L40.541 32.3672C40.7187 32.3196 40.8853 32.2375 41.0313 32.1255C41.1772 32.0135 41.2997 31.8738 41.3916 31.7145C41.4836 31.5551 41.5433 31.3792 41.5672 31.1968C41.5912 31.0144 41.5789 30.829 41.5312 30.6514L38.5068 19.3809Z" fill="#F39E22"/>
<path d="M37.9566 25.0492C38.6074 24.8748 38.8855 23.8024 38.5777 22.6541C38.2699 21.5058 37.4928 20.7163 36.842 20.8907C36.1912 21.0652 35.9131 22.1375 36.2209 23.2858C36.5287 24.4342 37.3058 25.2237 37.9566 25.0492Z" fill="#F9C744"/>
<path d="M38.8263 28.2778C39.2322 28.169 39.4057 27.5001 39.2137 26.7839C39.0218 26.0677 38.537 25.5753 38.1311 25.6842C37.7251 25.793 37.5516 26.4618 37.7436 27.178C37.9356 27.8942 38.4203 28.3866 38.8263 28.2778Z" fill="#F9C744"/>
<path d="M32.8603 20.748C33.3161 20.748 33.6855 20.3786 33.6855 19.9229C33.6855 19.4671 33.3161 19.0977 32.8603 19.0977C32.4046 19.0977 32.0352 19.4671 32.0352 19.9229C32.0352 20.3786 32.4046 20.748 32.8603 20.748Z" fill="white"/>
<path d="M34.3594 24.708C34.9489 24.708 35.4268 24.2301 35.4268 23.6406C35.4268 23.0511 34.9489 22.5732 34.3594 22.5732C33.7699 22.5732 33.292 23.0511 33.292 23.6406C33.292 24.2301 33.7699 24.708 34.3594 24.708Z" fill="white"/>
<path d="M29.9072 23.7285C30.4967 23.7285 30.9746 23.2506 30.9746 22.6611C30.9746 22.0716 30.4967 21.5938 29.9072 21.5938C29.3177 21.5938 28.8398 22.0716 28.8398 22.6611C28.8398 23.2506 29.3177 23.7285 29.9072 23.7285Z" fill="white"/>
<path d="M31.6699 27.2246C32.0534 27.2246 32.3643 26.9137 32.3643 26.5303C32.3643 26.1468 32.0534 25.8359 31.6699 25.8359C31.2864 25.8359 30.9756 26.1468 30.9756 26.5303C30.9756 26.9137 31.2864 27.2246 31.6699 27.2246Z" fill="white"/>
<path d="M32.0352 31.4932C32.4186 31.4932 32.7295 31.1823 32.7295 30.7988C32.7295 30.4154 32.4186 30.1045 32.0352 30.1045C31.6517 30.1045 31.3408 30.4154 31.3408 30.7988C31.3408 31.1823 31.6517 31.4932 32.0352 31.4932Z" fill="white"/>
<path d="M33.9775 29.1104C34.4716 29.1104 34.8721 28.7099 34.8721 28.2158C34.8721 27.7218 34.4716 27.3213 33.9775 27.3213C33.4835 27.3213 33.083 27.7218 33.083 28.2158C33.083 28.7099 33.4835 29.1104 33.9775 29.1104Z" fill="white"/>
<path d="M37.0176 31.9785C37.401 31.9785 37.7119 31.6677 37.7119 31.2842C37.7119 30.9007 37.401 30.5898 37.0176 30.5898C36.6341 30.5898 36.3232 30.9007 36.3232 31.2842C36.3232 31.6677 36.6341 31.9785 37.0176 31.9785Z" fill="white"/>
<path d="M26.3809 19.3809H38.5068C38.508 19.1122 38.444 18.8472 38.3202 18.6087C38.1964 18.3702 38.0166 18.1653 37.7961 18.0116C37.5757 17.858 37.3213 17.7601 37.0547 17.7264C36.7881 17.6928 36.5173 17.7243 36.2656 17.8184C36.2302 17.4053 36.0421 17.0202 35.7381 16.7382C35.4341 16.4562 35.036 16.2976 34.6214 16.2932C34.2068 16.2888 33.8055 16.439 33.4956 16.7145C33.1857 16.9899 32.9895 17.3709 32.9453 17.7832C32.5377 17.4653 32.0442 17.2767 31.5285 17.2419C31.0127 17.2071 30.4984 17.3276 30.0518 17.5879C30.0202 17.2578 29.8628 16.9525 29.6123 16.7353C29.3617 16.5181 29.0372 16.4056 28.706 16.4211C28.3747 16.4367 28.0622 16.5791 27.8331 16.8189C27.6041 17.0587 27.476 17.3774 27.4756 17.709C27.4755 17.8392 27.4952 17.9686 27.5342 18.0928C27.2168 18.127 26.9233 18.2776 26.7103 18.5155C26.4973 18.7533 26.38 19.0616 26.3809 19.3809Z" fill="white"/>
<path d="M25.001 7.88379H25C24.7293 7.88379 24.5098 8.10327 24.5098 8.37402V13.6689C24.5098 13.9397 24.7293 14.1592 25 14.1592H25.001C25.2717 14.1592 25.4912 13.9397 25.4912 13.6689V8.37402C25.4912 8.10327 25.2717 7.88379 25.001 7.88379Z" fill="#DE57FF"/>
<path d="M21.2567 9.43546L21.2558 9.43571C20.9942 9.50578 20.839 9.7746 20.9091 10.0361L21.9689 13.9913C22.039 14.2528 22.3078 14.408 22.5693 14.338L22.5703 14.3377C22.8318 14.2676 22.987 13.9988 22.9169 13.7373L21.8571 9.7821C21.787 9.52058 21.5182 9.36538 21.2567 9.43546Z" fill="#DE57FF"/>
<path d="M18.2037 11.8189L18.2029 11.8194C17.9684 11.9548 17.8881 12.2546 18.0234 12.4891L19.4106 14.8918C19.546 15.1263 19.8458 15.2066 20.0803 15.0712L20.0812 15.0707C20.3156 14.9354 20.396 14.6355 20.2606 14.4011L18.8734 11.9983C18.738 11.7639 18.4382 11.6835 18.2037 11.8189Z" fill="#DE57FF"/>
<path d="M27.4293 14.3382L27.4303 14.3384C27.6918 14.4085 27.9606 14.2533 28.0307 13.9918L29.0905 10.0366C29.1606 9.77505 29.0054 9.50623 28.7438 9.43616L28.7429 9.43591C28.4814 9.36583 28.2126 9.52103 28.1425 9.78255L27.0827 13.7378C27.0126 13.9993 27.1678 14.2681 27.4293 14.3382Z" fill="#DE57FF"/>
<path d="M29.9188 15.0693L29.9197 15.0698C30.1542 15.2051 30.454 15.1248 30.5894 14.8903L31.9766 12.4876C32.1119 12.2531 32.0316 11.9533 31.7971 11.8179L31.7963 11.8175C31.5618 11.6821 31.262 11.7624 31.1266 11.9969L29.7394 14.3996C29.604 14.6341 29.6844 14.9339 29.9188 15.0693Z" fill="#DE57FF"/>
</g>
<defs>
<clipPath id="clip0_15_578">
<rect width="50" height="50" fill="white"/>
</clipPath>
</defs>
</svg>
