<svg width="1440" height="1024" viewBox="0 0 1440 1024" fill="none" xmlns="http://www.w3.org/2000/svg">
<g clip-path="url(#clip0_16_687)">
<rect width="1440" height="1024" fill="#2D1B33"/>
<g clip-path="url(#clip1_16_687)">
<path d="M1055.04 144.844L1061.7 137.357L1068.14 132.592L1076.36 131.004L1079.47 132.134C1079.47 132.134 1081.24 137.584 1081.47 138.26C1081.69 138.945 1082.8 136.676 1082.8 135.769C1082.8 134.861 1084.13 133.5 1085.01 132.596C1085.91 131.696 1087.24 132.596 1088.13 132.596C1089.01 132.596 1090.35 136.222 1090.79 137.134C1091.24 138.045 1089.23 141.671 1089.23 141.671L1085.01 142.575L1086.79 147.797L1089.46 153.466C1089.46 153.466 1090.57 152.789 1090.79 152.104C1091.01 151.42 1092.56 151.654 1093 150.97C1093.45 150.289 1095.22 149.831 1096.12 149.382C1097.01 148.935 1098.33 149.382 1099 149.831C1099.67 150.289 1099.22 153.696 1099.22 154.377C1099.22 155.058 1094.78 154.377 1094.78 154.377L1092.12 157.1C1092.12 157.1 1094.78 163.91 1094.78 164.583C1094.78 165.264 1098.12 168.209 1098.78 167.99C1099.45 167.763 1099.89 166.629 1099.89 166.629C1099.89 166.629 1102.33 165.49 1103.22 165.264C1104.11 165.04 1107 165.494 1107.66 165.952C1108.33 166.406 1107.22 169.351 1107.22 169.351L1103.67 169.805L1100.56 171.616L1103.45 178.196L1104.78 195.216L1112.99 207.007L1127.43 225.842C1127.43 225.842 1130.76 226.069 1132.75 225.165C1134.75 224.261 1139.42 224.481 1140.52 224.7C1141.63 224.93 1148.74 227.203 1149.85 228.338C1150.95 229.464 1158.73 234.46 1159.84 234.01C1160.95 233.56 1166.28 235.371 1167.39 236.275C1168.51 237.186 1184.04 242.401 1186.48 243.989C1188.92 245.577 1202.03 246.715 1204.24 247.396C1206.46 248.077 1221.78 250.803 1224.22 252.391C1226.67 253.98 1243.77 261.463 1243.77 261.463L1255.76 266.454L1270.41 268.043C1270.41 268.043 1274.19 268.496 1276.41 268.723C1278.63 268.954 1280.4 269.177 1282.4 269.854C1284.4 270.538 1287.29 270.765 1289.51 271.219C1291.73 271.669 1296.16 272.35 1298.83 272.35C1301.5 272.35 1303.72 272.349 1305.72 272.123C1307.72 271.903 1310.61 271.669 1312.38 270.988C1314.15 270.308 1317.04 270.085 1319.26 268.262C1321.48 266.45 1322.37 267.358 1323.26 266.904C1324.15 266.451 1325.48 268.039 1326.37 268.719C1327.26 269.404 1328.81 270.761 1329.7 272.123C1330.59 273.484 1335.25 273.026 1336.59 273.484C1337.92 273.942 1341.47 274.165 1342.58 274.165C1343.69 274.165 1347.91 274.618 1349.46 274.618C1351.02 274.618 1355.24 272.123 1355.24 272.123L1360.79 268.942C1360.79 268.942 1361.46 263.274 1361.9 262.597C1362.34 261.921 1361.46 258.736 1361.46 257.833C1361.46 256.933 1361.01 256.929 1359.68 257.833C1358.34 258.744 1358.12 256.929 1355.9 254.879C1353.69 252.841 1353.91 251.253 1353.47 248.757C1353.02 246.262 1352.57 245.354 1352.35 242.862C1352.13 240.366 1355.46 239.228 1355.46 239.228C1355.46 239.228 1356.57 237.19 1356.57 236.506C1356.57 235.825 1356.35 229.468 1356.13 228.565C1355.9 227.665 1356.8 224.027 1356.57 222.896C1356.35 221.758 1357.68 219.489 1358.12 216.317C1358.57 213.144 1361.01 212.683 1362.57 209.51C1364.13 206.334 1367.67 202.473 1368.78 201.111C1369.89 199.75 1378.78 196.347 1380.33 195.893C1381.89 195.447 1390.1 195.212 1391.65 195.439C1393.21 195.67 1401.21 199.523 1402.31 200.2C1403.42 200.884 1408.98 205.645 1409.87 206.784C1410.76 207.926 1414.3 215.859 1414.53 217.674C1414.76 219.497 1415.86 226.292 1416.08 227.43C1416.31 228.561 1417.41 238.997 1418.09 238.774C1418.75 238.547 1420.97 239.224 1421.42 240.359C1421.86 241.497 1422.53 247.165 1422.31 250.799C1422.08 254.422 1415.53 258.056 1415.53 258.056L1414.87 263.501C1414.87 263.501 1415.2 265.543 1416.2 265.543C1417.2 265.543 1417.2 267.923 1417.54 268.942C1417.87 269.969 1419.53 270.988 1420.54 270.988C1421.53 270.988 1422.87 270.988 1424.86 270.308C1426.87 269.623 1428.53 269.281 1430.53 268.262C1432.52 267.243 1434.2 267.581 1436.19 267.243C1438.18 266.904 1440.19 268.262 1441.85 269.623C1443.51 270.984 1447.5 268.604 1450.17 267.923C1452.84 267.243 1457.16 265.543 1459.5 265.201C1461.83 264.858 1466.82 264.178 1466.82 264.178H1479.49L1492.47 261.797L1499.14 259.759C1499.14 259.759 1515.46 254.31 1516.79 253.972C1518.12 253.63 1527.11 249.211 1528.11 248.527C1529.12 247.846 1535.77 242.058 1536.77 241.039C1537.77 240.017 1557.09 231.172 1558.09 231.172C1559.09 231.172 1592.06 214.836 1592.06 214.836L1604.38 205.987C1604.38 205.987 1612.05 201.223 1613.04 199.858C1614.05 198.5 1616.05 195.439 1616.72 193.393C1617.37 191.351 1623.71 182.161 1623.71 182.161L1629.03 178.077L1639.68 173.654C1639.68 173.654 1644.02 170.251 1645.35 169.57C1646.68 168.886 1649.68 166.506 1649.68 166.506L1656 169.57C1656 169.57 1660.34 173.997 1661.01 175.012C1661.68 176.027 1659.89 178.419 1659.44 180.011C1659.01 181.599 1658.12 183.184 1657.67 184.095C1657.23 184.999 1655.45 190.902 1655.45 190.902C1655.45 190.902 1654.35 196.789 1653.68 197.712C1653.01 198.616 1651.9 205.195 1651.9 205.88C1651.9 206.561 1647.02 209.049 1647.02 209.049L1637.7 213.809L1625.92 219.255C1625.92 219.255 1612.16 229.699 1612.16 230.38C1612.16 231.06 1598.17 241.035 1596.61 242.635C1595.06 244.216 1578.85 257.614 1572.63 261.917C1566.42 266.227 1536.67 279.837 1536 280.514C1535.32 281.198 1529.34 283.24 1525.34 285.959C1521.34 288.689 1493.59 304.337 1493.59 304.337C1493.59 304.337 1491.81 311.824 1491.37 313.646C1490.92 315.462 1488.7 321.58 1488.04 323.399C1487.37 325.214 1484.25 325.214 1482.93 325.437C1481.6 325.668 1478.04 326.344 1476.49 327.021C1474.94 327.706 1470.5 331.79 1467.83 333.605C1465.16 335.424 1458.72 346.991 1451.84 354.251C1444.96 361.508 1442.07 386.011 1441.41 389.192C1440.74 392.376 1437.41 410.746 1437.41 413.468C1437.41 416.187 1436.74 425.043 1435.63 429.123C1434.53 433.207 1432.07 437.057 1431.63 439.779C1431.19 442.498 1432.97 450.443 1432.97 451.581C1432.97 452.712 1433.19 461.11 1434.07 462.691C1434.96 464.279 1439.85 473.808 1441.85 476.762C1443.85 479.711 1442.29 486.741 1442.29 486.741C1442.29 486.741 1444.96 491.059 1445.63 492.421C1446.29 493.782 1447.63 498.769 1448.51 500.354C1449.39 501.942 1452.51 507.837 1453.17 510.114C1453.83 512.379 1456.06 519.87 1456.29 521.231C1456.5 522.592 1460.05 527.361 1460.72 529.172C1461.39 530.983 1463.61 545.054 1463.61 545.054L1466.04 559.805L1469.61 578.625L1468.05 589.52C1468.05 589.52 1458.95 589.754 1458.5 589.754C1458.05 589.754 1337.26 592.019 1337.26 592.019C1337.26 592.019 1335.48 579.306 1335.26 578.629C1335.04 577.952 1325.94 549.596 1325.05 547.784C1324.16 545.973 1319.72 535.306 1318.61 533.267C1317.49 531.226 1311.95 518.289 1309.95 514.436C1307.95 510.575 1307.73 506.264 1307.5 501.5C1307.28 496.739 1304.17 471.559 1304.17 471.559L1303.28 454.081C1246.66 478.588 1229.34 425.724 1229.34 425.724C1228.89 423.455 1228.67 415.968 1226.67 409.161C1224.68 402.351 1214.46 394.868 1214.46 394.868C1188.48 378.986 1188.04 368.776 1186.92 366.507C1185.81 364.234 1184.92 358.793 1184.92 356.978C1184.92 355.163 1185.37 349.94 1185.37 349.94L1188.03 349.041C1188.03 349.041 1189.58 350.856 1189.82 351.986C1190.04 353.128 1192.92 355.166 1192.92 355.166L1196.03 354.486L1198.25 351.986C1198.25 351.986 1200.69 351.986 1201.58 352.221C1202.47 352.448 1206.91 351.309 1206.91 351.309L1206.02 347.683L1175.82 308.428L1135.63 259.886L1134.08 261.244L1131.86 263.286C1131.86 263.286 1125.43 263.513 1124.53 263.97C1123.64 264.428 1119.65 261.701 1118.76 261.244C1117.87 260.798 1116.76 258.294 1116.31 256.706C1115.87 255.122 1116.54 255.345 1117.42 253.983C1118.32 252.622 1118.54 252.399 1118.54 252.399C1118.54 252.399 1117.87 249.446 1117.42 249.223C1116.99 248.992 1114.31 248.769 1112.54 246.492C1110.76 244.227 1111.21 240.601 1111.21 240.601L1108.55 238.109C1108.55 238.109 1107.21 235.156 1107.21 233.345C1107.21 231.533 1110.54 228.353 1110.54 228.353L1101.88 217.228L1091 204.753L1085.9 195.682L1080.56 194.093L1077.68 188.879L1074.57 182.068L1068.13 171.182L1060.58 158.93L1053.03 146.905L1055.04 144.844ZM1277.98 345.849C1281.09 356.512 1280.42 358.331 1285.53 363.323C1290.64 368.307 1297.74 373.306 1303.95 375.113L1310.17 376.932C1310.17 376.932 1307.96 357.201 1306.84 355.382C1305.73 353.571 1302.4 347.668 1301.95 346.31C1301.51 344.949 1297.3 337.685 1297.07 336.781C1296.84 335.877 1293.74 330.194 1293.07 329.29C1292.4 328.39 1288.63 323.164 1288.63 323.164L1267.09 330.878C1267.09 330.878 1274.87 335.189 1277.98 345.849ZM1161.19 264.405L1176.27 281.871L1206.04 317.723L1222.02 336.32C1222.02 336.32 1224.47 336.32 1226.47 336.1C1228.47 335.874 1231.8 334.962 1235.13 332.466C1238.46 329.975 1238.89 329.29 1238.23 326.34C1237.57 323.391 1229.57 316.358 1229.57 316.358V313.181C1244.23 309.551 1254.89 321.803 1254.89 321.803L1278.43 311.366C1278.43 311.366 1268.87 305.921 1268.21 305.013C1267.54 304.11 1246.89 295.48 1246.89 295.48C1246.89 295.48 1236.24 293.215 1232.23 292.535C1228.24 291.854 1211.36 285.501 1206.26 283.459C1201.15 281.417 1186.5 274.384 1185.84 273.926C1185.17 273.476 1164.74 261.451 1163.62 260.548C1162.52 259.64 1155.63 257.59 1155.63 257.59L1161.19 264.405Z" fill="#F36A71"/>
</g>
<g clip-path="url(#clip2_16_687)">
<path fill-rule="evenodd" clip-rule="evenodd" d="M-58.8376 1195.4C-62.3765 1196.27 -68.6183 1197.2 -70.541 1194.92C-75.1109 1189.48 -77.1451 1179.74 -77.2287 1172.09C-77.3123 1162.38 -70.2902 1151.56 -71.2377 1142.4C-73.9685 1140.97 -80.907 1134.49 -82.774 1129.13C-82.7182 1122.6 -85.0032 1114.9 -83.4706 1107.84C-81.6036 1099.22 -78.4548 1089.51 -75.6961 1082.17C-80.7398 1071.37 -78.4827 1059.72 -76.6714 1057.45C-75.9191 1056.52 -79.9317 1055.98 -79.7366 1054.96C-78.7335 1053.37 -76.0027 1049.35 -75.5568 1045.86C-75.4454 1045.01 -77.8139 1044.06 -77.2287 1043.5C-76.5599 1042.86 -71.8786 1038.03 -71.0984 1036.27C-60.9275 1033.05 -60.1194 1030.83 -54.9364 1025.02C-53.0973 1018.53 -51.0074 1007.59 -40.7529 1003.97C-30.7771 1000.44 -16.538 1000.61 -5.94913 998.522C-0.0138092 997.362 4.44466 999.588 5.19702 999.47C4.11027 994.52 9.32112 990.115 10.1849 989.902C9.15392 988.647 8.56876 987.32 8.5409 985.757C8.51303 985.118 8.59657 984.36 10.7422 983.863C12.86 982.087 19.7149 974.626 21.4704 969.914C20.523 966.669 17.0677 949.12 15.758 944.478C14.5877 940.192 11.5503 928.208 12.4141 921.885C4.77903 914.827 6.00513 906.349 4.08242 899.149C0.822174 892.376 -3.91496 885.295 -7.3424 880.108C-11.5779 873.69 -23.142 868.409 -26.7367 868.054C-26.6809 866.609 -26.0401 849.818 -25.9843 849.463C-27.9906 847.355 -41.5332 834.638 -45.3786 824.525C-49.8928 812.731 -53.7661 814.839 -56.6083 809.723C-72.6866 781.02 -68.3118 755.371 -74.9995 728.207C-75.3896 726.549 -77.5631 724.749 -77.786 723.115C-78.3712 718.426 -77.4238 713.713 -76.1141 709.877C-74.7208 705.874 -69.733 700.664 -71.0984 698.035C-73.7734 692.872 -76.5321 685.791 -77.2287 681.007C-77.5073 678.994 -75.2503 676.65 -72.213 680.06C-69.2592 683.376 -69.3428 684.631 -68.9249 686.454C-66.7235 689.344 -65.999 693.559 -64.9679 697.088C-64.8843 697.443 -64.0763 697.846 -63.8533 697.562C-59.5899 691.996 -58.8097 684.086 -55.2987 679.231C-53.2088 676.342 -51.1746 679.255 -51.0353 680.534C-50.4222 686.81 -53.6546 694.151 -53.4874 694.506C-52.6236 693.678 -52.0384 690.859 -51.8155 690.409C-51.3975 689.604 -51.6484 689.557 -51.1746 687.567C-50.1715 683.091 -51.091 684.797 -49.6699 681.955C-48.9454 680.581 -44.9049 681.126 -44.9327 683.849C-44.9327 685.507 -45.7966 688.017 -45.4901 690.007C-44.6541 690.551 -43.8739 693.417 -43.7346 695.264C-43.4002 700.64 -44.0968 705.022 -44.0132 709.877C-44.0132 711.061 -42.7871 712.482 -43.7346 714.187C-46.4096 719.018 -51.4811 722.144 -55.5773 726.905C-56.274 727.71 -57.4443 730.22 -57.1657 731.167C-54.2955 740.948 -52.2056 751.464 -46.6047 760.51C-39.3318 772.186 -34.3439 781.47 -31.4738 786.798C-28.2972 792.766 -28.102 795.371 -26.5416 800.724C-24.5353 807.758 -17.9312 812.494 -12.9712 818.06C-12.7482 818.344 -11.9402 818.107 -11.7173 818.367C-10.2683 820.144 -8.67992 823.104 -7.06373 824.857C-6.64574 825.306 -4.86241 825.828 -4.50016 826.277C-3.0233 828.03 -3.1347 828.812 -1.57425 830.611C-0.905479 831.346 0.877937 831.914 1.85323 832.435C2.91211 833.027 3.44155 834.353 4.63976 834.803C5.8101 835.253 7.37055 835.206 8.5409 836.698C8.76382 836.982 8.76382 837.432 9.07034 837.645C13.1108 840.392 18.3494 841.932 21.8883 845.224C22.6964 845.958 22.8079 847.521 25.2322 848.042C29.217 848.918 33.6475 854.484 35.821 854.2C35.5145 851.855 32.7837 847.308 36.3784 846.645C37.5208 846.384 35.4867 843.826 35.6817 843.495C35.0966 844.3 35.4866 843.969 34.4278 843.969C34.2327 843.14 33.4246 837.479 33.0345 836.698C32.8673 836.366 32.115 837.195 31.9757 836.864C31.5577 835.798 31.8642 833.501 31.3626 832.435C31.1118 831.914 30.3316 832.956 30.1644 832.435C29.9693 831.701 28.0187 830.256 28.0745 829.475C28.1859 828.362 30.3037 826.349 30.8053 825.33C36.4898 813.939 45.9362 803.708 64.2158 802.618C67.2253 802.453 70.6249 803.897 73.6622 803.566C76.5602 803.258 79.3189 800.961 82.0219 800.724C81.4088 801.292 82.0497 801.482 81.4645 802.334C82.9971 802.358 87.7899 803.329 88.1522 804.513L87.3162 805.46C92.1927 807.379 95.4808 809.984 98.9361 812.494L97.4871 813.039L102.893 819.244L103.729 823.909C104.035 825.591 105.54 827.012 105.958 828.646C106.293 829.854 106.125 831.18 105.958 832.435C105.763 833.88 105.234 835.277 104.844 836.698C104.314 838.758 103.813 840.819 103.172 842.855C102.893 843.803 102.754 844.821 102.977 845.982C104.788 845.863 107.992 843.637 110.974 843.329C112.618 843.163 111.364 845.508 113.064 845.579C121.089 842.121 122.343 843.85 123.792 843.803C125.854 840.369 128.306 839.469 131.093 839.469C135.663 839.469 142.267 836.106 144.942 834.566C148.007 832.79 164.225 825.33 168.014 822.701L168.795 823.483C173.782 819.504 178.882 816.047 183.229 809.96C198.109 789.001 213.212 763.992 221.209 740.641C222.77 736.117 213.351 732.778 210.648 728.326C207.973 723.944 207.416 718.663 205.075 714.139C204.072 712.197 201.648 711.013 200.84 709.687C200.255 708.763 202.289 707.224 203.961 707.508C204.602 707.603 204.852 707.792 205.549 708.148C203.905 706.916 203.292 704.193 203.961 701.824C204.797 698.84 206.636 695.146 208.335 692.659C208.893 691.854 210.091 690.788 211.122 690.599C212.432 690.362 213.992 691.309 213.992 692.375C213.964 692.825 214.215 693.441 214.549 693.796C215.19 691.451 217.42 689.13 218.98 687.994C220.15 687.141 223.912 687.923 223.299 689.415C222.463 691.475 218.033 699.764 220.095 700.403C221.627 697.798 224.135 691.191 226.782 688.586C228.677 686.715 232.049 689.699 231.324 691.546C229.987 694.838 227.005 698.343 226.782 702.298C226.615 705.282 228.621 710.848 229.569 711.298C230.126 709.474 230.544 705.732 231.519 703.79C232.718 701.446 232.829 698.272 233.944 696.685C235.978 693.843 237.761 696.638 238.207 697.514C238.709 698.533 237.928 701.517 237.371 703.245C237.009 704.358 236.312 705.424 236.257 706.561C236.117 709.048 235.281 711.961 236.814 714.139C242.303 721.931 243.613 730.41 242.721 738.912C242.499 740.948 240.52 742.796 240.158 744.903C235.504 771.286 225.222 795.608 214.549 817.775C213.518 819.883 213.686 822.488 212.32 824.383C210.37 827.059 206.246 828.74 203.738 831.156C194.124 840.392 181.418 849.747 174.451 854.673L175.566 873.596C174.897 875.538 169.714 874.496 167.206 875.49C166.175 875.917 165.897 877.219 164.977 877.859C159.961 881.482 153.859 884.229 149.4 888.279C145.137 892.116 140.567 896.497 138.811 901.518C134.437 914.022 132.514 927.687 131.009 940.807C130.48 945.497 133.043 950.352 132.681 954.993C132.486 957.764 129.867 960.346 129.337 963.046C129.114 964.277 130.396 965.532 130.452 966.835C130.591 969.179 129.672 971.619 129.895 973.916C130.034 975.242 131.316 976.403 131.566 977.705C131.873 979.245 131.371 980.902 131.566 982.442C131.734 983.579 131.901 984.857 132.681 985.757C134.882 988.315 137.279 991.418 140.483 992.862C143.967 994.425 150.376 992.602 152.744 994.757C155.559 997.315 154.862 1002.97 156.088 1007.05C157.286 1011.17 158.54 1015.29 159.961 1019.36C160.379 1020.5 160.435 1022.11 161.633 1022.68C173.42 1028.1 190.167 1030.71 198.945 1037.34C202.066 1039.68 195.824 1046.01 197.273 1049.63C199.168 1054.37 206.218 1057.75 208.976 1062.42C210.509 1065.02 209.004 1068.65 210.091 1071.42C210.843 1073.38 214.438 1074.59 214.549 1076.6C214.8 1082.34 211.54 1088.59 211.206 1094.6C210.983 1098.06 213.574 1101.87 212.878 1105C212.46 1106.92 209.199 1107.96 207.862 1109.74C200.478 1119.64 194.236 1130.2 186.712 1140.03C182.365 1145.66 177.879 1151.89 172.222 1156.11C170.076 1157.72 164.893 1155.73 163.305 1157.53C160.073 1161.25 159.543 1167.62 157.732 1172.69C154.527 1181.8 154.5 1194.64 148.286 1200.13C142.74 1205.01 131.761 1203 128.223 1199.19C121.674 1192.06 118.553 1175.57 118.804 1166.13C118.943 1160.75 125.882 1157.95 125.965 1152.7C126.077 1147.23 120.671 1142.82 120.142 1137.14C119.556 1130.53 119.724 1123.24 123.235 1117.79C125.102 1114.88 130.926 1113.38 134.91 1113.05C138.338 1112.77 142.127 1115.66 145.499 1115.89C146.586 1115.97 147.951 1114.83 148.286 1114C148.704 1112.93 147.478 1111.44 147.728 1110.21C148.592 1105.92 149.902 1101.45 151.63 1097.45C151.936 1096.71 153.441 1096.64 153.859 1096.02C154.165 1095.53 154.36 1094.44 153.859 1094.13C152.493 1093.32 149.846 1093.47 148.286 1092.71C147.617 1092.38 147.923 1091.05 147.171 1090.81C134.938 1086.95 121.34 1084.99 109.302 1080.39C97.3757 1075.85 87.2884 1067.37 75.3342 1063.37C68.9251 1061.21 61.1786 1061.54 54.1844 1061.94C44.2922 1062.49 34.5114 1064.79 24.6749 1066.21C13.7238 1067.77 2.54984 1070.83 -8.17832 1070.94C-11.9401 1070.97 -15.702 1066.68 -18.7672 1066.68C-20.3277 1066.68 -21.1915 1069.4 -22.0832 1070.94C-23.978 1074.14 -25.1762 1077.74 -27.0989 1080.87C-27.4054 1081.36 -28.5758 1081.29 -28.7709 1081.81C-30.0805 1085.39 -32.059 1089.54 -31.5574 1093.18C-31.1116 1096.5 -26.8482 1099.34 -25.9843 1102.63C-25.3713 1105.02 -26.8203 1107.68 -27.0989 1110.21C-27.3776 1112.58 -27.0711 1115.02 -27.6563 1117.32C-28.1857 1119.28 -30.3313 1119.99 -29.8855 1121.82C-29.0495 1125.2 -24.591 1127.43 -24.7304 1130.91C-24.9811 1136.74 -26.2351 1144.79 -31.5574 1149.14C-34.3439 1151.42 -37.8549 1153.19 -37.6877 1156.58C-37.5205 1160.23 -35.3749 1163.99 -35.4585 1167.48C-35.5421 1172.05 -36.4895 1177.04 -39.3597 1180.71C-44.0132 1186.68 -50.9796 1193.43 -58.8376 1195.4Z" fill="#F36A71"/>
</g>
</g>
<defs>
<clipPath id="clip0_16_687">
<rect width="1440" height="1024" fill="white"/>
</clipPath>
<clipPath id="clip1_16_687">
<rect width="608" height="461" fill="white" transform="translate(1053 131)"/>
</clipPath>
<clipPath id="clip2_16_687">
<rect width="327" height="525" fill="white" transform="translate(-84 678)"/>
</clipPath>
</defs>
</svg>
